<svg xmlns="http://www.w3.org/2000/svg" width="210.738" height="163.42" viewBox="0 0 210.738 163.42">
  <path id="Trazado_1718" data-name="Trazado 1718" d="M562.533,357.8H535.42V321.077c10.175-1.864,17.891-10.379,17.891-20.576,0-5.158-2.065-18.007-5.4-29.769C543.132,253.86,537.831,246,531.228,246s-11.9,7.858-16.679,24.731c-3.334,11.762-5.4,24.61-5.4,29.769,0,10.2,7.712,18.711,17.89,20.576V357.8H499.65V253.7a13.154,13.154,0,0,0,8.942-12.447V223.365a4.189,4.189,0,0,0-4.192-4.188h-4.75v-5.031h9.223a4.194,4.194,0,0,0,0-8.387H482.04a4.194,4.194,0,0,0,0,8.387h9.226v5.031h-4.753a4.187,4.187,0,0,0-4.192,4.188v17.883a13.153,13.153,0,0,0,8.945,12.447V357.8H476.6l-2.846-13.983h3.809a4.188,4.188,0,1,0,0-8.376h-9.223v-9.511h4.75a4.192,4.192,0,1,0,0-8.383h-4.75v-5.031h4.75a4.19,4.19,0,1,0,0-8.38H392.606a4.19,4.19,0,1,0,0,8.38h4.754v5.031h-4.754a4.192,4.192,0,1,0,0,8.383h4.754v9.511h-9.226a4.188,4.188,0,1,0,0,8.376h3.809L389.1,357.8H363.118s-4.389.35-4.122,4.589c.212,3.393,4.122,3.787,4.122,3.787H562.533a4.188,4.188,0,1,0,0-8.376m-156.79-45.285h54.219v5.031H405.743Zm0,13.414h54.219v9.5H405.743Zm-8.088,31.87,2.845-13.983h64.7l2.849,13.983Zm97.8-111.8a4.755,4.755,0,0,1-4.746-4.754v-13.7h9.5v13.7A4.756,4.756,0,0,1,495.454,246m35.774,53.66a4.191,4.191,0,0,0-4.188,4.192v8.621c-5.509-1.631-9.5-6.381-9.5-11.973,0-3.739,1.642-14.925,4.724-26.2,4.483-16.406,8.252-19.412,8.967-19.857.719.445,4.484,3.451,8.971,19.857,3.086,11.28,4.728,22.465,4.728,26.2,0,5.593-4,10.342-9.507,11.973v-8.621a4.192,4.192,0,0,0-4.192-4.192" transform="translate(-357.483 -204.259)" fill="#f89c24" stroke="#f89c24" stroke-width="3"/>
</svg>
