<svg xmlns="http://www.w3.org/2000/svg" width="119" height="119" viewBox="0 0 119 119">
  <g id="Grupo_444" data-name="Grupo 444" transform="translate(-0.378 -0.378)">
    <circle id="Elipse_6" data-name="Elipse 6" cx="59.5" cy="59.5" r="59.5" transform="translate(0.378 0.378)" fill="#f7ce3c"/>
    <g id="Grupo_28" data-name="Grupo 28" transform="translate(26.86 28.155)">
      <g id="Grupo_27" data-name="Grupo 27" transform="translate(0 0)">
        <path id="Trazado_93" data-name="Trazado 93" d="M68.124,84.016H66.288V31.98a8.31,8.31,0,0,0-8.337-8.263h-46.4a8.291,8.291,0,0,0-8.3,8.263V84.016H1.385a1.385,1.385,0,0,0,0,2.769h6.44a1.385,1.385,0,1,0,0-2.769h-1.8V33.365h9.188v27.75a4.226,4.226,0,0,0-.549,2.086v2.727h-.722a1.385,1.385,0,1,0,0,2.769h.722v3.232a3.671,3.671,0,0,0,1.264,7.118H27.964a3.671,3.671,0,0,0,1.264-7.118V68.7h.721a1.385,1.385,0,0,0,0-2.769h-.721V63.2a4.226,4.226,0,0,0-.549-2.086V33.365h12.15v27.75A4.226,4.226,0,0,0,40.28,63.2v2.727h-.721a1.385,1.385,0,0,0,0,2.769h.721v3.232a3.671,3.671,0,0,0,1.264,7.118H53.58a3.671,3.671,0,0,0,1.264-7.118V68.7h.722a1.385,1.385,0,0,0,0-2.769h-.722V63.2a4.258,4.258,0,0,0-4.253-4.253H44.533a4.248,4.248,0,0,0-.935.1V33.365h7.928V50.959a1.385,1.385,0,0,0,2.769,0V33.365h9.224V84.016H61.684a1.385,1.385,0,1,0,0,2.769h6.44a1.385,1.385,0,1,0,0-2.769Zm-39.258-8.64a.9.9,0,0,1-.9.9H15.929a.9.9,0,1,1,0-1.8H27.964A.9.9,0,0,1,28.866,75.376ZM25.91,59.053a4.245,4.245,0,0,0-.935-.1H18.917a4.244,4.244,0,0,0-.935.1V33.365H25.91Zm-6.993,2.664h6.058A1.485,1.485,0,0,1,26.459,63.2v8.5H17.434V63.2A1.485,1.485,0,0,1,18.917,61.717ZM53.579,74.474a.9.9,0,1,1,0,1.8H41.545a.9.9,0,0,1,0-1.8H53.579ZM44.533,61.717h6.058A1.485,1.485,0,0,1,52.074,63.2v8.5H43.049V63.2A1.485,1.485,0,0,1,44.533,61.717ZM54.295,30.6v-.664a1.385,1.385,0,0,0-2.769,0V30.6H43.6v-.664a1.385,1.385,0,0,0-2.769,0V30.6H28.679v-.664a1.385,1.385,0,1,0-2.769,0V30.6H17.983v-.664a1.385,1.385,0,0,0-2.769,0V30.6H6.2a5.535,5.535,0,0,1,5.353-4.11h46.4A5.565,5.565,0,0,1,63.34,30.6Z" transform="translate(0 -23.717)" fill="#a16517" stroke="#a16517" stroke-width="1"/>
      </g>
    </g>
  </g>
</svg>
