<svg id="Grupo_498" data-name="Grupo 498" xmlns="http://www.w3.org/2000/svg" width="179.893" height="177.055" viewBox="0 0 179.893 177.055">
  <path id="Trazado_1714" data-name="Trazado 1714" d="M619.059,312.326l3.174-3.174c-12.321-10.712-28.133-28.483-41.709-41.66a7.512,7.512,0,0,0-2.538-9.622c-14.646-9.726-20.185-16.7-26.6-24.794-2.876-3.624-5.849-7.369-9.795-11.649a7.414,7.414,0,0,0-1.174-1.03,20.513,20.513,0,0,0-4.96-3.459,15.458,15.458,0,0,0-4-1.432,28.244,28.244,0,0,0-4.409-.4h-.056c-.229,0-.466.048-.7.064-.169.012-.338-.016-.5,0-.281.032-.563.088-.841.129-.3.036-.591.072-.889.129-14.686,2.3-30.128,13.749-47.163,34.987a7.527,7.527,0,0,0,11.742,9.42,130.585,130.585,0,0,1,19.28-20l-6.182,28.841a13.516,13.516,0,0,0,2.579,11.082l-1.947,29.7-12.377,31.986a9.58,9.58,0,0,0,17.868,6.915L520.763,315a9.648,9.648,0,0,0,.631-2.824l1.13-17.284,11.384,17.984,9.429,34.5a9.588,9.588,0,0,0,9.252,7.112,9.208,9.208,0,0,0,2.47-.33,9.564,9.564,0,0,0,6.786-11.717l-9.8-35.908a9.619,9.619,0,0,0-1.163-2.659L535.357,279.35a12.94,12.94,0,0,0,1.166-3.218l6.356-29.613c5.937,7.281,12.771,14.593,26.789,23.889a7.31,7.31,0,0,0,8.262-.024c12.554,12.192,28.354,30.812,41.129,41.942" transform="translate(-475.242 -177.426)" fill="#f89c24"/>
  <path id="Trazado_1715" data-name="Trazado 1715" d="M505.934,244.509a19.386,19.386,0,1,0-19.384-19.38,19.381,19.381,0,0,0,19.384,19.38" transform="translate(-441.065 -205.737)" fill="#f89c24"/>
  <path id="Trazado_1716" data-name="Trazado 1716" d="M515.4,244.452l-6.7-5.378a3.518,3.518,0,1,0-4.409,5.482l6.834,5.5v14.923a1.12,1.12,0,0,0,.024.233l-6.014,11.564a3.517,3.517,0,0,0,6.239,3.25l6.058-11.637,6.766,11.766a3.52,3.52,0,0,0,6.1-3.512l-5.913-10.265h21.894V278.4a3.518,3.518,0,0,0,7.035,0V265.228a1.274,1.274,0,0,0,.028-.249v-11.13l-16.387-9.4Z" transform="translate(-391.409 -107.327)" fill="#f89c24"/>
  <path id="Trazado_1717" data-name="Trazado 1717" d="M535.56,249.882c-2.172-2.052-2.9-4.441-5.342-6.183-.426-.3-.857-.6-1.307-.869a.552.552,0,0,1-.33-.624q.151-1.514.286-3.029a4.836,4.836,0,0,0-1.83-4.521c-.587-.43-3.459-1.822-4.714,2.944a14.722,14.722,0,0,1-1.135,3.017,97.859,97.859,0,0,1-6.315,9.887c-1,1.476-2,2.957-3,4.425l15.386,8.765s2.964-3.246,3.379-3.065c.579.253,1.154.507,1.738.756a11.573,11.573,0,0,0,5.31.977c3.145-.189,6.419-1.854,6.717-5.631.282-3.459-8.105-6.158-8.845-6.85" transform="translate(-364.519 -119.91)" fill="#f89c24"/>
</svg>
