<svg xmlns="http://www.w3.org/2000/svg" width="152.908" height="167.308" viewBox="0 0 152.908 167.308">
  <g id="Grupo_520" data-name="Grupo 520" transform="translate(2062.928 -1225.363)">
    <path id="Trazado_1720" data-name="Trazado 1720" d="M-1769.7,1272.78c-2.767-15.369-8.005-29.96-14.553-44.1a5.475,5.475,0,0,0-3.85-3.136c-2.842-.682-5.365.577-6.745,3.486a202.264,202.264,0,0,0-11.958,32.811c-2.12,7.652-3.929,15.343-1.968,23.344a47.514,47.514,0,0,0,2.62,6.269,20.272,20.272,0,0,0,11.7,8.424,27.3,27.3,0,0,1-3.591,14.817c5.609,0,10.907,0,16.2,0,.8,0,.789-.409.485-.946a27.237,27.237,0,0,1-3.174-13.89,34.182,34.182,0,0,0,5.388-2.174,22.988,22.988,0,0,0,5.255-4.653A26.368,26.368,0,0,0-1769.7,1272.78Z" transform="translate(-140.811)" fill="#f89c24"/>
    <path id="Trazado_1721" data-name="Trazado 1721" d="M-2048.434,1361.789h17.2a27.827,27.827,0,0,1-4-14.624.977.977,0,0,1,.28-.172c10.493-2.134,16.771-10.837,17.948-21.911.584-5.5-.414-10.767-1.526-16.061l-.853-3.246a204.227,204.227,0,0,0-6.071-20.093,190.769,190.769,0,0,0-8.279-20.555c-1.2-2.488-3.115-4.3-6.251-4.022-.824.075-1.657.052-2.487.075a12.2,12.2,0,0,0-3.935,4.75,241.424,241.424,0,0,0-14.521,42.029c-.784,3.191-1.344,6.436-2.008,9.656v7.976c.511.261.328.771.4,1.173,1.084,6.193,3.433,11.7,8.41,15.836a25.453,25.453,0,0,0,9.6,4.56A28.134,28.134,0,0,1-2048.434,1361.789Z" transform="translate(0 -19.852)" fill="#f89c24"/>
    <path id="Trazado_1722" data-name="Trazado 1722" d="M-1909.166,1410.227c-7.474-4.745-15.663-7.939-23.9-11.041-5.585-2.1-11.349-3.739-16.772-6.259-6.041-2.807-7.927-7.8-5.456-13.986,1.567-3.925,4.272-7.078,6.875-10.3a6.444,6.444,0,0,0-1.291-.261c-5.117.015-10.222-.613-15.344-.29-2.711,1.606-5.474,3.133-8.124,4.835-4.582,2.942-8.886,6.217-12.057,10.762-3.7,5.306-3.314,10.826,1.117,15.554a41.342,41.342,0,0,0,8.761,6.8c5.289,3.242,10.913,5.869,16.338,8.862a27.715,27.715,0,0,1,7.2,4.985c1.8,1.929,1.7,3.553-.4,5.179a17.8,17.8,0,0,1-3.75,2.112,130.166,130.166,0,0,1-15.362,5.266c-10.9,3.307-21.758,6.727-31.958,11.931-10.7,5.46-20.091,12.484-27.232,22.282-.826,1.133-1.427,2.265-.691,3.661.719,1.363,1.968,1.645,3.373,1.645q32.892-.008,65.784-.008a7.606,7.606,0,0,0,5.042-1.768,140.753,140.753,0,0,1,17.284-12.031c6.707-4.014,14.012-6.854,20.794-10.715,6.22-3.542,12.279-7.286,17.02-12.8,5.558-6.465,5.358-13.149-.61-19.193A37.342,37.342,0,0,0-1909.166,1410.227Zm-67.1-16.309a2.619,2.619,0,0,1-2.761-2.834,2.633,2.633,0,0,1,2.782-2.822,3.077,3.077,0,0,1,2.873,2.894A2.735,2.735,0,0,1-1976.266,1393.918Zm8.551,46.21a3.054,3.054,0,0,1,2.988,2.932,2.631,2.631,0,0,1-2.865,2.709,2.482,2.482,0,0,1-2.792-2.692A2.727,2.727,0,0,1-1967.715,1440.128Zm.147,23.184a3.027,3.027,0,0,1-2.817-2.9,3.107,3.107,0,0,1,2.7-3.006,3.059,3.059,0,0,1,2.959,2.982A3.039,3.039,0,0,1-1967.568,1463.312Zm37.416-49a3.2,3.2,0,0,1,2.911-3.056,3.021,3.021,0,0,1,2.742,2.965,2.739,2.739,0,0,1-2.714,2.927A3.079,3.079,0,0,1-1930.152,1414.309Zm5.842,11.489a3.067,3.067,0,0,1-2.865-2.819,2.6,2.6,0,0,1,2.849-2.834,2.594,2.594,0,0,1,2.8,2.714A3.081,3.081,0,0,1-1924.31,1425.8Zm11.35-2.977c-1.618-.046-2.613-1.193-2.6-2.995a2.6,2.6,0,0,1,2.889-2.657,3.087,3.087,0,0,1,2.763,2.785A3.07,3.07,0,0,1-1912.959,1422.82Z" transform="translate(-17.45 -79.284)" fill="#f89c24"/>
  </g>
</svg>
