<svg xmlns="http://www.w3.org/2000/svg" xmlns:xlink="http://www.w3.org/1999/xlink" width="141.446" height="140" viewBox="0 0 141.446 140">
  <defs>
    <filter id="_Color" x="6.427" y="28.612" width="135.018" height="94.062" filterUnits="userSpaceOnUse">
      <feOffset dy="3" input="SourceAlpha"/>
      <feGaussianBlur stdDeviation="3" result="blur"/>
      <feFlood flood-opacity="0.502"/>
      <feComposite operator="in" in2="blur"/>
      <feComposite in="SourceGraphic"/>
    </filter>
  </defs>
  <g id="icon_maps_360_24px" data-name="icon/maps/360_24px" transform="translate(-0.369 0.262)" style="isolation: isolate">
    <rect id="Boundary" width="139" height="140" transform="translate(0.369 -0.262)" fill="none"/>
    <g transform="matrix(1, 0, 0, 1, 0.37, -0.26)" filter="url(#_Color)">
      <path id="_Color-2" data-name=" ↳Color" d="M58.509,0C26.212,0,0,13.106,0,29.255,0,42.361,17.2,53.419,40.956,57.164v18.9l23.4-23.4-23.4-23.4V45.228C22.526,41.951,11.7,34.111,11.7,29.255c0-6.2,17.787-17.553,46.807-17.553s46.807,11.351,46.807,17.553c0,4.271-8.542,11.058-23.4,14.8V56.052c20.654-4.505,35.106-14.8,35.106-26.8C117.019,13.106,90.806,0,58.509,0Z" transform="translate(15.43 34.61)" fill="#f89c24"/>
    </g>
  </g>
</svg>
