<svg id="Grupo_364" data-name="Grupo 364" xmlns="http://www.w3.org/2000/svg" width="183.735" height="116.454" viewBox="0 0 183.735 116.454">
  <g id="Grupo_363" data-name="Grupo 363">
    <g id="Grupo_362" data-name="Grupo 362">
      <g id="Grupo_361" data-name="Grupo 361">
        <g id="Grupo_360" data-name="Grupo 360">
          <path id="Trazado_1616" data-name="Trazado 1616" d="M254.958,264.778a10.127,10.127,0,0,1-15.247,0,32.952,32.952,0,0,0-49.519-.208,10.127,10.127,0,0,1-15.134,0,32.948,32.948,0,0,0-49.338,0,10.13,10.13,0,0,1-7.581,3.4h0a10.108,10.108,0,0,1-7.563-3.39,32.815,32.815,0,0,0-18.637-10.464V274.1a13.822,13.822,0,0,1,4.259,3.229,29.33,29.33,0,0,0,43.878-.009,13.744,13.744,0,0,1,20.615.006,29.315,29.315,0,0,0,43.872,0,13.736,13.736,0,0,1,20.683.08,29.329,29.329,0,0,0,44.194,0,14.09,14.09,0,0,1,6.234-4.063V253.915A32.782,32.782,0,0,0,254.958,264.778Z" transform="translate(-91.939 -170.994)" fill="#f89c24"/>
          <circle id="Elipse_99" data-name="Elipse 99" cx="23.689" cy="23.689" r="23.689" transform="translate(114.944 70.141) rotate(-79.148)" fill="#f89c24"/>
          <path id="Trazado_1617" data-name="Trazado 1617" d="M157.6,315.114a3.855,3.855,0,0,0,5.555-.006,39.47,39.47,0,0,1,23.114-12.692,22.133,22.133,0,0,0-.879-11.107c-.685-1.939-8.218-27.242-8.218-27.242a14.713,14.713,0,0,1,2.291-9.957c3.172-4.641,9.815-7.825,19.179-9.231a9.6,9.6,0,1,0-2.839-18.995c-14.994,2.237-25.842,8.084-32.2,17.374a33.53,33.53,0,0,0-5.12,25.229l2.037,8.251a22.694,22.694,0,0,0-3.711.9l-38.749,13.681a22.4,22.4,0,0,0-14.887,19.555,39.2,39.2,0,0,1,54.425,4.239Z" transform="translate(-69.699 -225.777)" fill="#f89c24"/>
        </g>
      </g>
    </g>
  </g>
</svg>
